PathFileType	4	(X/Y/Z)	C:/Users/beibeiliu/ov580/test_trc/User3\sequence.34_training_dense_right.trc
DataRate	CameraRate	NumFrames	NumMarkers	Units	OrigDataRate	OrigDataStartFrame	OrigNumFrames
120	120	24	19	mm	120	26	126
Frame#	Time	ThumbCMC			ThumbMCP			ThumbIP			ThumbTip			IndexMCP			IndexPIP			IndexTip			MiddleMCP			MiddlePIP			MiddleTip			RingMCP			RingPIP			RingTip			PinkyMCP			PinkyPIP			PinkyTip			BackHand1			BackHand2			BackHand3	
		X0	Y0	Z0	X1	Y1	Z1	X2	Y2	Z2	X3	Y3	Z3	X4	Y4	Z4	X5	Y5	Z5	X6	Y6	Z6	X7	Y7	Z7	X8	Y8	Z8	X9	Y9	Z9	X10	Y10	Z10	X11	Y11	Z11	X12	Y12	Z12	X13	Y13	Z13	X14	Y14	Z14	X15	Y15	Z15	X16	Y16	Z16	X17	Y17	Z17	X18	Y18	Z18	
25	0.208333	134.643	-4.32773	4.58416	141.209	-0.0249822	-20.0259	147.896	3.08867	-44.2733	152.194	5.7777	-68.2862	105.593	-9.70997	-64.5379	96.8817	9.67901	-83.3262	85.7377	30.5849	-96.9831	80.6223	-21.9436	-67.8367	72.9888	-9.70623	-87.18	64.1622	11.9463	-115.968	63.8995	-30.8781	-54.1472	55.5986	-27.625	-78.2571	48.8783	-22.0416	-97.7794	47.925	-36.5563	-27.7253	35.6927	-41.6361	-40.7323	21.3746	-51.2584	-57.1315	81.6701	-42.7322	0.228801	87.6283	-43.1239	27.2604	115.548	-34.0104	4.87588	
26	0.216667	132.706	-3.41037	5.72923	140.778	0.766389	-18.9332	152.273	4.47736	-45.4641	158.077	7.93034	-67.9916	108.866	-8.13321	-64.5993	99.0514	9.37144	-83.0177	93.2231	34.4544	-97.6933	86.0104	-21.3958	-65.8728	74.824	-5.21227	-90.3513	65.3075	11.6354	-112.232	69.3745	-29.0804	-58.1403	61.1115	-24.6474	-80.0844	47.7938	-20.2129	-102.489	48.8324	-35.288	-29.6318	40.4125	-40.3884	-47.1098	26.3013	-48.0899	-60.8218	84.9588	-39.6746	-4.39636	86.9824	-40.7166	25.6322	117.896	-34.0523	5.33817	
27	0.225	137.943	-1.4921	7.61461	145.683	3.6538	-19.051	153.208	4.78415	-51.4619	160.809	10.8694	-67.6862	107.82	-6.44029	-67.538	103.325	12.0995	-84.597	95.5919	36.3204	-99.7202	86.9317	-18.6826	-68.0689	76.8134	-4.84238	-90.6694	70.4137	16.0098	-116.886	68.9658	-28.2041	-53.6128	63.6809	-22.879	-79.1812	48.65	-18.0917	-102.673	52.4255	-32.6648	-29.8554	38.3558	-38.4777	-42.5319	28.375	-47.6086	-64.3179	85.1188	-39.1502	-6.33936	93.1807	-40.0945	26.7116	118.412	-32.253	0.0929162	
28	0.233333	136.972	0.0473331	4.11719	145.811	3.73867	-23.6618	152.757	7.41291	-48.4368	161.895	12.2091	-68.4757	111.499	-2.26082	-70.7665	106.187	15.2636	-85.8899	95.8197	40.6347	-100.896	88.2046	-16.0812	-70.4063	82.1128	-2.23806	-90.9215	71.7459	16.8193	-117.128	70.6559	-24.9187	-58.6226	62.319	-21.8713	-79.269	52.8236	-15.8049	-102.136	53.9346	-30.0178	-32.1451	41.418	-37.1002	-47.2593	27.7282	-45.5438	-60.2733	88.4859	-37.1051	-5.49987	91.8231	-37.6116	25.6751	121.64	-29.1307	-2.11222	
29	0.241667	136.789	1.96219	6.23597	146.376	7.42827	-20.7857	156.978	9.77318	-51.0852	161.246	12.2785	-71.9846	108.254	-0.294087	-70.9698	104.82	16.5598	-86.1307	95.9785	38.0947	-99.5472	87.1049	-14.0757	-71.7771	79.6801	1.03755	-92.6596	74.3769	20.6405	-119.085	70.8332	-22.8565	-56.5013	63.8116	-18.7866	-81.4662	55.3797	-13.4508	-105.436	55.727	-27.4594	-31.8743	40.8922	-35.6937	-48.2888	28.0017	-44.0409	-60.1531	87.967	-35.3975	-7.44179	91.4247	-36.8903	24.7057	123.557	-25.834	1.14029	
30	0.25	139.597	2.42583	3.87904	149.208	6.73845	-22.0893	156.698	10.6392	-48.1418	161.809	14.2081	-67.604	114.411	0.53126	-69.144	103.163	18.6299	-86.1671	96.5369	37.9275	-99.3904	88.9929	-11.8933	-70.1311	81.3764	2.85901	-93.0366	72.9377	20.804	-116.433	71.8305	-21.7067	-58.7679	66.7986	-17.2273	-80.8583	52.6949	-11.9487	-105.97	57.8856	-26.4371	-33.8096	45.3745	-33.1845	-50.5395	31.7266	-41.8372	-62.3465	88.262	-33.6327	-6.06614	93.5098	-33.7665	21.8298	123.555	-25.9752	1.37341	
31	0.258333	139.96	2.20986	5.55033	150.122	5.94742	-24.2442	158.184	9.11587	-48.7466	165.945	13.4834	-70.2547	112.225	-3.07766	-67.1793	105.84	18.6681	-87.1529	95.2623	38.512	-100.242	89.2284	-13.5598	-71.4857	81.3386	0.480926	-91.7784	75.2995	20.4712	-118.855	73.8785	-21.6118	-59.7296	64.8647	-18.0289	-80.8995	58.3399	-12.9817	-103.169	56.6999	-27.2235	-31.855	46.0184	-33.0088	-48.4894	33.1838	-42.2172	-65.121	90.9122	-33.4209	-7.32042	97.4998	-35.518	23.7322	121.167	-26.888	1.29489	
32	0.266667	143.289	2.75054	8.31776	152.185	5.76362	-23.5697	161.28	7.93211	-50.5609	165.489	12.3692	-70.7658	114.129	-3.89587	-66.6636	108.859	20.2679	-87.9386	99.9414	37.8103	-98.5991	92.0601	-14.6119	-67.653	85.8142	1.34833	-92.8668	73.3895	18.2659	-116.3	74.5208	-22.6492	-57.0569	67.4157	-18.8559	-79.5995	54.5921	-13.4093	-104.392	59.268	-26.913	-31.0973	43.3202	-33.7497	-45.275	31.0033	-42.121	-66.1651	89.2689	-35.756	-4.67248	92.3181	-34.8924	23.2572	120.967	-27.7142	-1.03773	
33	0.275	140.657	2.03941	7.56614	152.206	6.64662	-18.2727	159.98	9.57115	-46.8156	166.784	11.6799	-69.5311	115.704	-0.821469	-69.6048	108.687	16.9096	-85.8185	96.6916	36.1946	-98.6212	88.695	-15.1244	-65.7779	84.1415	0.0196697	-90.9797	76.3347	17.188	-114.341	71.6758	-22.6157	-59.2686	64.6124	-19.5955	-78.925	53.2366	-13.9896	-100.266	56.9392	-29.1189	-32.3974	43.8331	-34.7765	-45.5292	28.698	-45.7676	-63.1298	90.5907	-37.4755	-4.86078	94.8251	-35.9061	21.3084	125.09	-26.0559	2.19265	
34	0.283333	138.021	-0.238743	5.46983	151.191	3.43511	-21.8726	154.687	6.59276	-45.784	165.183	9.81985	-69.32	109.827	-4.73428	-67.114	107.256	17.861	-88.5814	97.4171	34.6708	-99.5888	91.4246	-13.5937	-70.6345	83.3991	-0.774817	-89.6163	72.6845	18.3503	-115.797	73.3229	-23.4649	-57.7056	63.9804	-19.8156	-76.5594	55.0293	-14.1185	-104.983	56.0039	-29.3184	-32.531	41.7886	-35.0069	-46.4032	31.1953	-44.589	-62.692	87.4273	-36.0808	-2.73512	94.2262	-35.6114	24.9664	122.093	-28.0087	-0.41814	
35	0.291667	137.577	-0.124978	8.69764	149.522	2.29301	-23.389	157.586	6.11299	-48.4449	159.493	9.02562	-69.2234	112.76	-2.77331	-70.6333	103.581	13.7655	-84.8774	98.3982	34.4143	-100.038	88.038	-14.2194	-71.5414	80.9359	-0.503025	-91.1067	69.9036	15.9976	-113.948	69.8914	-24.614	-55.6699	64.8097	-19.4426	-81.0773	51.2208	-14.6246	-104.922	55.1077	-31.1194	-34.6394	44.4365	-33.5817	-45.717	29.6205	-43.8719	-62.6838	90.6808	-38.2266	-4.68927	93.9622	-36.9275	26.88	119.475	-30.3943	1.13048	
36	0.3	137.609	-0.425762	4.2438	147.36	5.07513	-20.5244	155.976	5.94623	-53.0019	161.444	11.0188	-70.5189	109.549	-4.51677	-69.8746	106.698	15.3555	-87.1728	95.1055	33.8788	-99.4348	91.3996	-12.9507	-71.8706	81.7519	0.311294	-90.1423	74.0842	18.9348	-117.591	72.1906	-23.8395	-56.7289	63.3587	-18.5657	-81.819	53.706	-13.0828	-105.387	54.8455	-28.8892	-30.7044	40.1039	-37.2414	-49.243	33.0084	-44.0167	-60.9717	89.9628	-35.5868	-5.39424	94.9364	-37.1466	20.5687	121.328	-28.8965	2.92325	
37	0.308333	137.085	2.03474	7.00739	149.649	6.7473	-21.4295	157.42	8.14163	-54.0915	161.796	12.8864	-72.6047	111.241	-3.98764	-68.7556	104.489	13.9664	-87.2889	99.7146	37.2719	-102.364	89.3866	-13.7919	-72.066	79.6659	0.54249	-91.7427	70.989	19.6229	-116.767	72.2132	-24.413	-57.7803	63.9546	-18.1046	-83.166	56.7023	-12.7049	-104.558	53.3312	-29.4753	-33.5181	40.7276	-35.9638	-50.4726	31.2044	-44.2197	-66.5374	89.6139	-37.356	-4.95842	91.7485	-38.487	20.5068	120.73	-28.8362	-3.28769	
38	0.316667	139.464	-0.400344	6.31814	150.195	4.23338	-22.2962	157.372	6.19644	-53.899	161.689	12.7022	-70.881	111.602	-4.29789	-72.9623	107.769	14.215	-90.7296	98.2641	35.4048	-104.089	88.5269	-17.8226	-71.5372	84.6237	-2.36378	-93.5778	75.9977	18.1072	-119.917	74.1289	-24.7335	-62.6914	64.8312	-21.5368	-80.5523	57.9057	-13.4936	-105.993	56.3634	-30.5361	-33.975	42.4818	-35.2456	-47.7048	31.995	-42.1832	-66.128	90.5195	-37.2593	-6.514	95.6119	-38.7955	18.6447	121.681	-32.194	-3.04044	
39	0.325	144.82	-1.42343	4.65912	151.114	1.25388	-26.7478	155.568	4.6318	-53.9709	161.621	11.9539	-71.7459	117.133	-8.14869	-69.2526	112.317	10.0468	-90.4937	103.453	31.6039	-106.306	94.0202	-17.3836	-75.286	84.532	-2.32225	-96.8449	75.1798	17.6484	-119.878	72.6505	-25.0785	-63.61	67.3696	-19.3608	-84.0389	58.4213	-9.87051	-108.313	59.813	-30.9538	-38.1446	43.1462	-35.4192	-52.994	29.7238	-39.2517	-71.5287	89.0261	-39.5667	-7.87519	93.9641	-39.3612	21.7498	124.618	-33.0906	-4.11946	
40	0.333333	144.813	-3.96058	1.73252	152.082	1.65294	-24.701	158.852	5.66223	-53.1468	161.383	9.46294	-74.0781	118.366	-10.9477	-71.5275	109.759	6.25662	-91.5403	100.574	29.3505	-108.969	91.5434	-21.2772	-72.8567	87.4306	-5.96254	-93.8511	76.9252	14.8232	-119.742	73.5069	-26.6223	-58.9062	67.7808	-19.751	-83.0875	56.7848	-11.6308	-105.058	56.6686	-32.3209	-36.4363	42.5842	-35.0028	-53.9087	29.4858	-37.2765	-71.4637	92.7351	-40.2831	-9.16211	96.5042	-42.2659	20.4789	122.555	-32.8123	-2.53779	
41	0.341667	143.98	-3.94395	3.23142	155.394	2.87126	-22.3153	158.309	4.89754	-53.2864	163.866	10.7312	-76.0778	120.976	-11.5483	-72.0485	112.283	5.74159	-92.7161	105.648	25.5346	-107.568	94.9532	-21.0532	-75.7106	85.2634	-7.38557	-95.256	74.8903	13.7345	-119.448	74.8773	-27.5307	-62.2525	70.7455	-21.6792	-81.3767	56.9433	-10.4447	-107.337	59.0797	-32.5631	-34.571	46.663	-35.4524	-57.5802	31.9399	-37.4942	-70.6248	93.826	-42.8869	-6.22998	96.9916	-40.6398	18.4106	127.846	-32.757	-1.97752	
42	0.35	144.695	-6.1408	3.91303	155.355	1.208	-20.7963	162.183	4.26186	-52.6612	167.432	9.34563	-74.9268	118.091	-11.9306	-72.1993	113.132	3.64293	-89.1179	105.964	24.0413	-104.948	93.9685	-22.6612	-73.5343	87.7928	-10.1891	-91.6872	79.6817	11.126	-117.295	80.7024	-27.9043	-59.5674	71.1937	-22.3208	-82.0306	63.8673	-12.9197	-103.408	60.1545	-33.725	-33.5818	48.1135	-36.9655	-50.516	34.2962	-39.7443	-70.8785	95.725	-43.4701	-4.89656	97.5737	-42.577	20.1472	128.178	-34.4268	-3.50918	
43	0.358333	149.62	-6.51081	5.9842	155.742	-0.498363	-19.7806	162.808	3.6854	-48.2832	166.328	8.61121	-69.005	121.029	-15.6104	-66.43	117.645	6.01848	-91.2845	110.513	23.7891	-103.805	99.0814	-23.3464	-67.1374	94.19	-7.89959	-92.0491	85.6824	10.654	-114.273	82.2477	-30.0798	-56.4948	73.6932	-21.6738	-82.2489	61.6552	-12.9337	-101.491	61.9235	-35.5836	-33.4276	52.3126	-36.9638	-51.722	37.0598	-39.1356	-69.2859	98.1311	-43.5923	-3.18727	100.625	-44.3495	22.0142	127.44	-35.9089	2.92712	
44	0.366667	146.894	-7.28878	4.96577	157.44	-0.975982	-17.8976	164.245	3.49304	-46.5945	168.511	8.56807	-69.0973	124.365	-13.0518	-70.1202	121.142	4.18493	-87.5368	108.427	24.2561	-103.155	101.753	-21.4098	-69.2584	92.7648	-7.12545	-91.123	86.6603	12.4775	-114.65	82.7007	-28.3207	-59.1834	75.8909	-21.4512	-82.2777	64.5251	-11.2293	-101.537	67.9587	-32.8663	-34.4371	52.0676	-36.4196	-52.0164	42.5052	-38.4745	-70.6735	98.5147	-45.6072	-6.34262	102.199	-42.4361	26.396	131.936	-35.6638	3.63102	
45	0.375	149.396	-6.82458	5.30044	160.889	-1.52346	-21.6539	168.856	2.49481	-49.969	172.614	8.07346	-72.122	124.837	-15.6311	-66.4511	122.939	5.32355	-87.75	112.213	26.966	-104.453	104.915	-22.2768	-69.4647	98.9146	-8.13753	-90.1807	87.1804	12.5002	-114.83	87.6106	-28.6726	-55.6462	77.7789	-21.1351	-81.8815	67.6226	-11.7395	-103.393	66.1728	-35.1959	-34.7879	57.7524	-35.5929	-50.3982	39.3091	-40.9283	-68.1096	103.079	-43.0057	-5.02201	102.65	-44.8036	26.9264	136.013	-35.5105	-0.445977	
46	0.383333	155.029	-3.42364	3.33871	162.614	1.16238	-21.9929	170.608	5.94791	-53.9514	171.629	11.5796	-70.2307	130.43	-9.82176	-69.0518	122.202	7.63984	-89.4366	111.489	30.8533	-105.966	105.445	-19.3157	-70.1176	99.5174	-3.63872	-93.4879	89.0076	16.1678	-115.778	89.8683	-26.0066	-57.8351	80.2702	-17.8797	-83.3126	69.8195	-7.30212	-105.346	66.7592	-33.4244	-36.375	53.5284	-34.4181	-54.9126	45.0673	-36.3536	-72.0835	99.6051	-40.9252	-9.31204	104.357	-42.5457	20.3551	134.36	-33.6913	-0.919438	
47	0.391667	154.828	0.0997511	5.14012	168.491	6.61592	-24.2445	174.741	11.7169	-52.3668	172.043	15.8632	-74.2861	134.284	-5.76247	-69.8867	123.285	12.0539	-92.1613	119.36	34.2575	-106.023	105.102	-14.1448	-72.8815	99.9548	3.08683	-96.8419	92.8263	23.8672	-119.538	91.0569	-21.5903	-59.11	79.2363	-13.0751	-85.1528	72.3453	-1.81719	-105.128	71.732	-27.0381	-38.4848	62.1548	-27.9804	-57.2285	49.2386	-30.589	-74.5821	104.021	-38.4198	-7.63557	111.077	-37.5673	21.9385	139.349	-29.1096	0.534292	
48	0.4	161.859	4.7721	3.63103	173.091	12.6044	-22.9321	176.519	17.6937	-54.4432	176.702	24.4193	-71.6811	134.547	-0.519837	-74.7585	133.197	16.0295	-91.1212	121.016	36.3129	-104.83	109.904	-9.84181	-73.4316	106.648	6.81066	-95.406	97.6602	30.1604	-117.566	97.1649	-16.6779	-61.7599	86.701	-8.65688	-82.1176	73.4716	8.11676	-107.424	76.7974	-21.1322	-37.6684	62.0924	-22.3834	-55.9453	54.1091	-20.5471	-76.3782	108.955	-33.0718	-6.57023	112.982	-35.0846	19.2608	143.993	-25.7984	-1.22961	
